# xmcd
#
# Track frame offsets:
# 150
# 15112
# 28545
# 44592
# 57877
# 71470
# 83547
# 95222
# 107715
# 123712
# 138857
# 151440
# 164122
# 180585
# 194680
#
# Disc length: 2745 seconds
#
#
# Revision: 0
# Processed by: cddbd v1.5.2PL0 Copyright (c) Steve Scherf et al.
# Submitted via: FreeRIP 2.951 
#
DISCID=cb0ab70f
DTITLE=VARIOS/BARRETOS OFICIAL 2007 - BARRETOS OFICIAL 2007
DYEAR=2207
DGENRE=SERTANEJO
TTITLE0=FUNK RODEIO/FYLE E GLAYDSON RODRIGUES
TTITLE1=TO DE BOA/FRANK JR E DELLUC
TTITLE2=DE SEGUNDA A SEGUNDA/LUAN E LEOMAR
TTITLE3=ANIVERSARIO DO TAIADA/TRIO BATE O PE
TTITLE4=BEIJO TA NA MODA/LELLES E LEONARDO
TTITLE5=ARMADILHA/JEAN E JULIANO
TTITLE6=UMA NOITE NO FORRO/LUIZ WALDO SHOW
TTITLE7=FLOR DO CAMPO/GUILHERME E GUSTAVO
TTITLE8=AO SOM DO RHAAS/GRUPO RHAAS
TTITLE9=VIDA BOA/PAULO CESAR E ADRIANO
TTITLE10=O CACHORRO DO VIZINHO/PEDRO HENRIQUE E LUISINHO
TTITLE11=TA FICANDO BOM/JANDER E JARDEL
TTITLE12=CACHACA/NEY E RAY
TTITLE13=OI NOIS TRAVEIS/JOAO CARREIRO E CAPATAZ
TTITLE14=CERVEJA/JEAN E JULIANO
EXTD=
EXTT0=
EXTT1=
EXTT2=
EXTT3=
EXTT4=
EXTT5=
EXTT6=
EXTT7=
EXTT8=
EXTT9=
EXTT10=
EXTT11=
EXTT12=
EXTT13=
EXTT14=
PLAYORDER=
